<?xml version="1.0" encoding="UTF-8" standalone="no"?>
<!-- Created with Inkscape (http://www.inkscape.org/) -->

<svg
   width="210mm"
   height="297mm"
   viewBox="0 0 210 297"
   version="1.1"
   id="svg1"
   xmlns="http://www.w3.org/2000/svg"
   xmlns:svg="http://www.w3.org/2000/svg">
  <defs
     id="defs1" />
  <g
     id="layer1">
    <g
       id="g27"
       transform="matrix(0.26458333,0,0,0.26458333,-7.9079728,-40.856786)">
      <path
         id="path28"
         d="m 108,595.633 h 434.85 v -138.5 H 108 Z"
         style="fill:#ffffff;fill-opacity:1;fill-rule:evenodd;stroke:none"
         transform="matrix(1.3333333,0,0,-1.3333333,0,1056)" />
      <path
         id="path29"
         d="m 124.68,544.56 h 15.12 v -61.185 h -15.12 z m 103.2,-52.02 H 243 v -9.165 H 227.88 Z M 331.08,540 h 15.12 v -56.625 h -15.12 z m 103.2,-33.66 h 15.12 v -22.965 h -15.12 z"
         style="fill:#2e5882;fill-opacity:1;fill-rule:nonzero;stroke:none"
         transform="matrix(1.3333333,0,0,-1.3333333,0,1056)" />
      <path
         id="path30"
         d="M 143.88,544.56 H 159 v -61.185 h -15.12 z m 103.2,-48.96 h 15.12 v -12.225 h -15.12 z m 103.2,39.78 h 15.12 v -52.005 h -15.12 z m 103.2,-25.98 h 15.12 v -26.025 h -15.12 z"
         style="fill:#6b9bcb;fill-opacity:1;fill-rule:nonzero;stroke:none"
         transform="matrix(1.3333333,0,0,-1.3333333,0,1056)" />
      <path
         id="path31"
         d="m 163.08,538.44 h 15.06 v -55.065 h -15.06 z m 103.2,-42.84 h 15.12 v -12.225 h -15.12 z m 103.2,38.28 h 15.12 v -50.505 h -15.12 z m 103.2,-19.92 h 15.12 v -30.585 h -15.12 z"
         style="fill:#ed7c31;fill-opacity:1;fill-rule:nonzero;stroke:none"
         transform="matrix(1.3333333,0,0,-1.3333333,0,1056)" />
      <path
         id="path32"
         d="m 182.22,536.94 h 15.12 V 483.375 H 182.22 Z M 285.48,494.1 h 15.06 v -10.725 h -15.06 z m 103.2,52.02 h 15.12 v -62.745 h -15.12 z m 103.2,-38.28 H 507 v -24.465 h -15.12 z"
         style="fill:#f8b22a;fill-opacity:1;fill-rule:nonzero;stroke:none"
         transform="matrix(1.3333333,0,0,-1.3333333,0,1056)" />
      <path
         id="path33"
         d="m 201.42,530.82 h 15.12 v -47.445 h -15.12 z m 103.2,-30.6 h 15.12 v -16.845 h -15.12 z m 103.26,53.52 H 423 v -70.365 h -15.12 z m 103.2,-53.52 h 15.12 v -16.845 h -15.12 z"
         style="fill:#f9e17d;fill-opacity:1;fill-rule:nonzero;stroke:none"
         transform="matrix(1.3333333,0,0,-1.3333333,0,1056)" />
      <path
         id="path34"
         d="M 0,0 H 412.85"
         style="fill:none;stroke:#e5e6e7;stroke-width:0.75;stroke-linecap:butt;stroke-linejoin:round;stroke-miterlimit:10;stroke-dasharray:none;stroke-opacity:1"
         transform="matrix(1.3333333,0,0,-1.3333333,158.66667,411.5)" />
    </g>
    <path
       id="path57"
       d="m 40.366082,41.90922 c 0,-0.388607 -0.17363,-0.673859 -0.45889,-0.673859 -0.28938,0 -0.45475,0.285252 -0.45475,0.673859 0,0.388607 0.17363,0.669727 0.45475,0.669727 0.28526,0 0.45889,-0.28112 0.45889,-0.669727 z m -0.21084,0 c 0,0.272852 -0.0827,0.483693 -0.24805,0.483693 -0.16536,0 -0.24804,-0.210841 -0.24804,-0.483693 0,-0.276984 0.0827,-0.48369 0.24804,-0.48369 0.16537,0 0.24805,0.206706 0.24805,0.48369 z m 1.39733,1.376662 c 0,-0.388607 -0.1695,-0.673862 -0.45475,-0.673862 -0.28939,0 -0.45889,0.285255 -0.45889,0.673862 0,0.388606 0.17364,0.669726 0.45889,0.669726 0.28525,0 0.45475,-0.28112 0.45475,-0.669726 z m -0.21084,0 c 0,0.268716 -0.0827,0.479557 -0.24391,0.479557 -0.16537,0 -0.24805,-0.210841 -0.24805,-0.479557 0,-0.28112 0.0827,-0.487826 0.24805,-0.487826 0.16123,0 0.24391,0.206706 0.24391,0.487826 z m -0.23564,-2.046388 -0.17777,-0.05374 -1.02939,2.757453 0.1819,0.05788 z m 33.60001,20.214782 c 0,-0.59531 -0.33073,-0.83095 -0.63665,-0.83095 -0.13229,0 -0.25218,0.0579 -0.33073,0.14056 l -0.008,-0.004 0.57051,-1.11621 h -0.28112 l -0.54157,1.09967 c -0.11989,0.23565 -0.19017,0.47129 -0.19017,0.71934 0,0.50436 0.26458,0.84749 0.70694,0.84749 0.42994,0 0.71106,-0.33486 0.71106,-0.85576 z m -0.26045,0 c 0,0.37207 -0.16536,0.63666 -0.44648,0.63666 -0.28112,0 -0.45475,-0.24805 -0.45475,-0.62839 0,-0.35967 0.18603,-0.64079 0.46302,-0.64079 0.29352,0 0.43821,0.26459 0.43821,0.63252 z m 1.46451,-1.19475 c 0,-0.38861 -0.17363,-0.67387 -0.45888,-0.67387 -0.28939,0 -0.45476,0.28526 -0.45476,0.67387 0,0.3886 0.17364,0.66972 0.45476,0.66972 0.28525,0 0.45888,-0.28112 0.45888,-0.66972 z m -0.21084,0 c 0,0.27285 -0.0827,0.48369 -0.24804,0.48369 -0.16537,0 -0.24805,-0.21084 -0.24805,-0.48369 0,-0.27699 0.0827,-0.4837 0.24805,-0.4837 0.16536,0 0.24804,0.20671 0.24804,0.4837 z m 1.39733,1.37665 c 0,-0.3886 -0.16949,-0.67386 -0.45475,-0.67386 -0.28939,0 -0.45889,0.28526 -0.45889,0.67386 0,0.38861 0.17364,0.66973 0.45889,0.66973 0.28526,0 0.45475,-0.28112 0.45475,-0.66973 z m -0.21084,0 c 0,0.26872 -0.0827,0.47956 -0.24391,0.47956 -0.16536,0 -0.24805,-0.21084 -0.24805,-0.47956 0,-0.28112 0.0827,-0.48782 0.24805,-0.48782 0.16123,0 0.24391,0.2067 0.24391,0.48782 z m -0.23564,-2.04638 -0.17777,-0.0537 -1.02939,2.75746 0.1819,0.0579 z M 110.18094,44.81757 c 0,-0.347265 -0.19017,-0.60358 -0.47543,-0.657325 v -0.0083 c 0.27286,-0.06201 0.40515,-0.34313 0.40515,-0.628386 0,-0.376203 -0.23978,-0.657322 -0.62012,-0.657322 -0.23977,0 -0.48782,0.132291 -0.59531,0.405143 l 0.21911,0.07028 c 0.0703,-0.152961 0.2067,-0.252179 0.35966,-0.252179 0.27699,0 0.38861,0.248047 0.38861,0.463021 0,0.310057 -0.17777,0.504362 -0.44235,0.504362 h -0.0827 v 0.210838 h 0.0786 c 0.30179,0 0.51263,0.186037 0.51263,0.54157 0,0.248047 -0.14056,0.545703 -0.45476,0.545703 -0.2191,0 -0.3762,-0.140559 -0.44234,-0.347265 l -0.23151,0.06615 c 0.0992,0.322461 0.34313,0.504362 0.68626,0.504362 0.44648,0 0.69453,-0.367938 0.69453,-0.760677 z m 1.70842,-1.690854 v -0.214974 h -1.28571 v 0.227378 h 1.0294 l -0.8599,2.393651 h 0.27285 z m 1.30121,0.401011 c 0,-0.388607 -0.17363,-0.673862 -0.45888,-0.673862 -0.28939,0 -0.45476,0.285255 -0.45476,0.673862 0,0.388606 0.17364,0.669726 0.45476,0.669726 0.28525,0 0.45888,-0.28112 0.45888,-0.669726 z m -0.21084,0 c 0,0.272851 -0.0827,0.48369 -0.24804,0.48369 -0.16537,0 -0.24805,-0.210839 -0.24805,-0.48369 0,-0.276987 0.0827,-0.483693 0.24805,-0.483693 0.16536,0 0.24804,0.206706 0.24804,0.483693 z m 1.39734,1.376658 c 0,-0.388606 -0.1695,-0.673859 -0.45476,-0.673859 -0.28939,0 -0.45889,0.285253 -0.45889,0.673859 0,0.388607 0.17364,0.669727 0.45889,0.669727 0.28526,0 0.45476,-0.28112 0.45476,-0.669727 z m -0.21084,0 c 0,0.268719 -0.0827,0.479558 -0.24392,0.479558 -0.16536,0 -0.24805,-0.210839 -0.24805,-0.479558 0,-0.281119 0.0827,-0.487825 0.24805,-0.487825 0.16123,0 0.24392,0.206706 0.24392,0.487825 z m -0.23565,-2.046385 -0.17777,-0.05374 -1.02939,2.757456 0.1819,0.05788 z m 32.28123,14.546916 v -2.621029 h -0.23151 l -0.62011,0.467154 0.12402,0.20257 0.47955,-0.376203 v 2.327508 z m 2.10943,-0.82269 c 0,-0.479557 -0.2067,-0.826823 -0.64905,-0.826823 -0.0868,0 -0.20257,0.02894 -0.28526,0.07028 l 0.0248,-0.818557 h 0.81856 v -0.22324 h -1.0418 l -0.0289,1.302245 c 0.11163,-0.07441 0.29352,-0.124023 0.43409,-0.124023 0.31006,0 0.47955,0.252179 0.47955,0.628385 0,0.392742 -0.1819,0.632518 -0.43821,0.632518 -0.1943,0 -0.339,-0.119888 -0.41342,-0.322458 l -0.22324,0.08268 c 0.0951,0.293523 0.31833,0.467153 0.64079,0.467153 0.40101,0 0.68213,-0.314192 0.68213,-0.868163 z m 1.28261,-1.182357 c 0,-0.388607 -0.17363,-0.673862 -0.45889,-0.673862 -0.28938,0 -0.45474,0.285255 -0.45474,0.673862 0,0.388607 0.17363,0.669727 0.45474,0.669727 0.28526,0 0.45889,-0.28112 0.45889,-0.669727 z m -0.21084,0 c 0,0.272852 -0.0827,0.48369 -0.24805,0.48369 -0.16536,0 -0.24804,-0.210838 -0.24804,-0.48369 0,-0.276987 0.0827,-0.48369 0.24804,-0.48369 0.16537,0 0.24805,0.206703 0.24805,0.48369 z m 1.39734,1.376659 c 0,-0.388604 -0.1695,-0.673859 -0.45476,-0.673859 -0.28939,0 -0.45889,0.285255 -0.45889,0.673859 0,0.388609 0.17364,0.669728 0.45889,0.669728 0.28526,0 0.45476,-0.281119 0.45476,-0.669728 z m -0.21085,0 c 0,0.268719 -0.0827,0.479558 -0.24391,0.479558 -0.16536,0 -0.24804,-0.210839 -0.24804,-0.479558 0,-0.28112 0.0827,-0.487823 0.24804,-0.487823 0.16123,0 0.24391,0.206703 0.24391,0.487823 z m -0.23564,-2.046386 -0.17777,-0.05374 -1.02939,2.757454 0.1819,0.0579 z M 44.234582,43.290014 v -0.223242 h -0.32659 v -1.773534 h -0.34314 l -0.83095,1.752865 v 0.243911 h 0.93844 v 0.624253 h 0.23565 v -0.624253 z m -0.55811,-0.223242 h -0.71106 l 0.70279,-1.525487 h 0.008 z m 2.25413,-0.463021 c 0,-0.611849 -0.12402,-1.355989 -0.7028,-1.355989 -0.58291,0 -0.71107,0.74414 -0.71107,1.355989 0,0.615985 0.12816,1.35599 0.71107,1.35599 0.57878,0 0.7028,-0.740005 0.7028,-1.35599 z m -0.26458,0 c 0,0.376206 -0.0413,1.128615 -0.43822,1.128615 -0.40101,0 -0.44648,-0.752409 -0.44648,-1.128615 0,-0.376203 0.0455,-1.128612 0.44648,-1.128612 0.39688,0 0.43822,0.752409 0.43822,1.128612 z m 1.47484,-0.694531 c 0,-0.388607 -0.17363,-0.673859 -0.45889,-0.673859 -0.28938,0 -0.45475,0.285252 -0.45475,0.673859 0,0.388607 0.17364,0.669727 0.45475,0.669727 0.28526,0 0.45889,-0.28112 0.45889,-0.669727 z m -0.21084,0 c 0,0.272852 -0.0827,0.483693 -0.24805,0.483693 -0.16536,0 -0.24804,-0.210841 -0.24804,-0.483693 0,-0.276984 0.0827,-0.48369 0.24804,-0.48369 0.16537,0 0.24805,0.206706 0.24805,0.48369 z m 1.39733,1.376662 c 0,-0.388607 -0.1695,-0.673862 -0.45475,-0.673862 -0.28939,0 -0.45889,0.285255 -0.45889,0.673862 0,0.388606 0.17363,0.669726 0.45889,0.669726 0.28525,0 0.45475,-0.28112 0.45475,-0.669726 z m -0.21084,0 c 0,0.268716 -0.0827,0.479557 -0.24391,0.479557 -0.16536,0 -0.24805,-0.210841 -0.24805,-0.479557 0,-0.28112 0.0827,-0.487826 0.24805,-0.487826 0.16123,0 0.24391,0.206706 0.24391,0.487826 z m -0.23564,-2.046388 -0.17777,-0.05374 -1.02939,2.757453 0.1819,0.05788 z m 33.58761,19.228802 c 0,-0.35554 -0.1571,-0.58291 -0.42168,-0.68213 v -0.008 c 0.23151,-0.0951 0.35554,-0.31419 0.35554,-0.59531 0,-0.36794 -0.21911,-0.66559 -0.63252,-0.66559 -0.41342,0 -0.62426,0.29765 -0.62426,0.66559 0,0.28112 0.12403,0.49609 0.35967,0.59531 v 0.008 c -0.26458,0.091 -0.42168,0.32659 -0.42168,0.68213 0,0.45061 0.26045,0.76067 0.68627,0.76067 0.42994,0 0.69866,-0.31006 0.69866,-0.76067 z m -0.32246,-1.26917 c 0,0.26044 -0.14469,0.49195 -0.3762,0.49195 -0.22738,0 -0.36794,-0.23151 -0.36794,-0.49195 0,-0.28112 0.12816,-0.48783 0.36794,-0.48783 0.23564,0 0.3762,0.20671 0.3762,0.48783 z m 0.0537,1.25676 c 0,0.31833 -0.15296,0.56638 -0.42994,0.56638 -0.26872,0 -0.42582,-0.24805 -0.42582,-0.56638 0,-0.33073 0.17363,-0.56637 0.42582,-0.56637 0.25631,0 0.42994,0.23564 0.42994,0.56637 z m 1.48519,-1.27744 c 0,-0.3886 -0.17364,-0.67386 -0.45889,-0.67386 -0.28939,0 -0.45476,0.28526 -0.45476,0.67386 0,0.38861 0.17364,0.66973 0.45476,0.66973 0.28525,0 0.45889,-0.28112 0.45889,-0.66973 z m -0.21085,0 c 0,0.27286 -0.0827,0.4837 -0.24804,0.4837 -0.16537,0 -0.24805,-0.21084 -0.24805,-0.4837 0,-0.27698 0.0827,-0.48369 0.24805,-0.48369 0.16536,0 0.24804,0.20671 0.24804,0.48369 z m 1.39733,1.37666 c 0,-0.3886 -0.1695,-0.67386 -0.45475,-0.67386 -0.28939,0 -0.45888,0.28526 -0.45888,0.67386 0,0.38861 0.17363,0.66973 0.45888,0.66973 0.28525,0 0.45475,-0.28112 0.45475,-0.66973 z m -0.21084,0 c 0,0.26872 -0.0827,0.47956 -0.24391,0.47956 -0.16536,0 -0.24804,-0.21084 -0.24804,-0.47956 0,-0.28112 0.0827,-0.48782 0.24804,-0.48782 0.16123,0 0.24391,0.2067 0.24391,0.48782 z m -0.23564,-2.04638 -0.17777,-0.0537 -1.02939,2.75745 0.1819,0.0579 z M 116.95568,46.436074 c 0,-0.347265 -0.19017,-0.60358 -0.47542,-0.657323 v -0.0083 c 0.27285,-0.06201 0.40514,-0.34313 0.40514,-0.628385 0,-0.376203 -0.23978,-0.657323 -0.62012,-0.657323 -0.23978,0 -0.48782,0.132292 -0.59531,0.405143 l 0.21911,0.07028 c 0.0703,-0.152961 0.2067,-0.25218 0.35967,-0.25218 0.27698,0 0.3886,0.248047 0.3886,0.463021 0,0.310057 -0.17776,0.504362 -0.44235,0.504362 h -0.0827 v 0.210839 h 0.0786 c 0.30179,0 0.51263,0.186036 0.51263,0.54157 0,0.248047 -0.14056,0.545703 -0.45475,0.545703 -0.21911,0 -0.37621,-0.14056 -0.44236,-0.347266 l -0.23151,0.06615 c 0.0992,0.322461 0.34314,0.504362 0.68627,0.504362 0.44648,0 0.69453,-0.367937 0.69453,-0.76068 z m 1.84071,0.09095 v -0.223242 h -0.32659 v -1.773534 h -0.34314 l -0.83095,1.752864 v 0.243912 h 0.93844 v 0.624252 h 0.23565 v -0.624252 z m -0.5581,-0.223242 h -0.71107 l 0.7028,-1.525487 h 0.008 z m 1.72909,-1.157553 c 0,-0.388606 -0.17363,-0.673859 -0.45889,-0.673859 -0.28938,0 -0.45475,0.285253 -0.45475,0.673859 0,0.388607 0.17363,0.669727 0.45475,0.669727 0.28526,0 0.45889,-0.28112 0.45889,-0.669727 z m -0.21084,0 c 0,0.272852 -0.0827,0.483693 -0.24805,0.483693 -0.16536,0 -0.24804,-0.210841 -0.24804,-0.483693 0,-0.276984 0.0827,-0.48369 0.24804,-0.48369 0.16537,0 0.24805,0.206706 0.24805,0.48369 z m 1.39733,1.376662 c 0,-0.388607 -0.1695,-0.673862 -0.45475,-0.673862 -0.28939,0 -0.45889,0.285255 -0.45889,0.673862 0,0.388607 0.17364,0.669727 0.45889,0.669727 0.28525,0 0.45475,-0.28112 0.45475,-0.669727 z m -0.21084,0 c 0,0.268716 -0.0827,0.479557 -0.24391,0.479557 -0.16537,0 -0.24805,-0.210841 -0.24805,-0.479557 0,-0.28112 0.0827,-0.487826 0.24805,-0.487826 0.16123,0 0.24391,0.206706 0.24391,0.487826 z m -0.23564,-2.046388 -0.17777,-0.05374 -1.02939,2.757453 0.1819,0.05788 z m 32.2802,11.850441 v -2.621028 h -0.23152 l -0.62011,0.467153 0.12402,0.202573 0.47956,-0.376206 v 2.327508 z m 2.08772,-2.406054 v -0.214974 h -1.2857 v 0.227375 h 1.02939 l -0.8599,2.393653 h 0.27285 z m 1.30225,0.401007 c 0,-0.388606 -0.17363,-0.673859 -0.45889,-0.673859 -0.28938,0 -0.45475,0.285253 -0.45475,0.673859 0,0.388607 0.17363,0.669727 0.45475,0.669727 0.28526,0 0.45889,-0.28112 0.45889,-0.669727 z m -0.21084,0 c 0,0.272852 -0.0827,0.483693 -0.24805,0.483693 -0.16536,0 -0.24804,-0.210841 -0.24804,-0.483693 0,-0.276984 0.0827,-0.48369 0.24804,-0.48369 0.16537,0 0.24805,0.206706 0.24805,0.48369 z m 1.39733,1.376662 c 0,-0.388607 -0.1695,-0.673862 -0.45475,-0.673862 -0.28939,0 -0.45889,0.285255 -0.45889,0.673862 0,0.388607 0.17363,0.669726 0.45889,0.669726 0.28525,0 0.45475,-0.281119 0.45475,-0.669726 z m -0.21084,0 c 0,0.268716 -0.0827,0.479557 -0.24391,0.479557 -0.16537,0 -0.24805,-0.210841 -0.24805,-0.479557 0,-0.28112 0.0827,-0.487826 0.24805,-0.487826 0.16123,0 0.24391,0.206706 0.24391,0.487826 z m -0.23564,-2.046388 -0.17777,-0.05374 -1.02939,2.757453 0.1819,0.05788 z M 50.907042,45.359138 c 0,-0.347266 -0.19017,-0.603581 -0.47542,-0.657323 v -0.0083 c 0.27285,-0.06201 0.40514,-0.343133 0.40514,-0.628385 0,-0.376206 -0.23978,-0.657326 -0.62012,-0.657326 -0.23978,0 -0.48782,0.132292 -0.59531,0.405143 l 0.21911,0.07028 c 0.0703,-0.152964 0.2067,-0.252183 0.35966,-0.252183 0.27699,0 0.38861,0.248047 0.38861,0.463021 0,0.31006 -0.17776,0.504362 -0.44235,0.504362 h -0.0827 v 0.210841 h 0.0785 c 0.30179,0 0.51263,0.186034 0.51263,0.541568 0,0.248047 -0.14056,0.545703 -0.45476,0.545703 -0.2191,0 -0.3762,-0.14056 -0.44234,-0.347265 l -0.23151,0.06615 c 0.0992,0.322461 0.34313,0.504362 0.68626,0.504362 0.44648,0 0.69453,-0.367935 0.69453,-0.760677 z m 1.80661,-0.09508 c 0,-0.595313 -0.33073,-0.830959 -0.63666,-0.830959 -0.13229,0 -0.25218,0.05788 -0.33073,0.14056 l -0.008,-0.0041 0.57051,-1.116211 h -0.28112 l -0.54157,1.099674 c -0.11989,0.235644 -0.19017,0.471289 -0.19017,0.719336 0,0.504362 0.26458,0.847492 0.70693,0.847492 0.42995,0 0.71107,-0.334862 0.71107,-0.85576 z m -0.26045,0 c 0,0.37207 -0.16537,0.636653 -0.44649,0.636653 -0.28112,0 -0.45475,-0.248046 -0.45475,-0.628385 0,-0.359669 0.18604,-0.640789 0.46302,-0.640789 0.29352,0 0.43822,0.264583 0.43822,0.632521 z m 1.46348,-1.194761 c 0,-0.388606 -0.17364,-0.673859 -0.45889,-0.673859 -0.28939,0 -0.45476,0.285253 -0.45476,0.673859 0,0.388607 0.17364,0.669727 0.45476,0.669727 0.28525,0 0.45889,-0.28112 0.45889,-0.669727 z m -0.21085,0 c 0,0.272852 -0.0827,0.483693 -0.24804,0.483693 -0.16537,0 -0.24805,-0.210841 -0.24805,-0.483693 0,-0.276984 0.0827,-0.48369 0.24805,-0.48369 0.16536,0 0.24804,0.206706 0.24804,0.48369 z m 1.39733,1.376662 c 0,-0.388607 -0.16949,-0.673862 -0.45475,-0.673862 -0.28939,0 -0.45888,0.285255 -0.45888,0.673862 0,0.388607 0.17363,0.669726 0.45888,0.669726 0.28526,0 0.45475,-0.281119 0.45475,-0.669726 z m -0.21083,0 c 0,0.268716 -0.0827,0.479557 -0.24392,0.479557 -0.16536,0 -0.24804,-0.210841 -0.24804,-0.479557 0,-0.28112 0.0827,-0.487826 0.24804,-0.487826 0.16123,0 0.24392,0.206706 0.24392,0.487826 z m -0.23565,-2.046388 -0.17777,-0.05374 -1.02939,2.757453 0.1819,0.05788 z m 33.58658,17.071825 c 0,-0.35554 -0.1571,-0.58291 -0.42168,-0.68213 v -0.008 c 0.23151,-0.0951 0.35554,-0.31419 0.35554,-0.59531 0,-0.36794 -0.21911,-0.66559 -0.63253,-0.66559 -0.41341,0 -0.62425,0.29765 -0.62425,0.66559 0,0.28112 0.12403,0.49609 0.35967,0.59531 v 0.008 c -0.26458,0.0909 -0.42168,0.32659 -0.42168,0.68213 0,0.45062 0.26045,0.76068 0.68626,0.76068 0.42995,0 0.69867,-0.31006 0.69867,-0.76068 z m -0.32246,-1.26918 c 0,0.26045 -0.14469,0.49196 -0.37621,0.49196 -0.22737,0 -0.36793,-0.23151 -0.36793,-0.49196 0,-0.28112 0.12816,-0.48782 0.36793,-0.48782 0.23565,0 0.37621,0.2067 0.37621,0.48782 z m 0.0537,1.25677 c 0,0.31833 -0.15296,0.56638 -0.42995,0.56638 -0.26871,0 -0.42581,-0.24805 -0.42581,-0.56638 0,-0.33072 0.17363,-0.56637 0.42581,-0.56637 0.25632,0 0.42995,0.23565 0.42995,0.56637 z m 1.48518,-1.27744 c 0,-0.3886 -0.17363,-0.67386 -0.45888,-0.67386 -0.28939,0 -0.45476,0.28526 -0.45476,0.67386 0,0.38861 0.17364,0.66973 0.45476,0.66973 0.28525,0 0.45888,-0.28112 0.45888,-0.66973 z m -0.21084,0 c 0,0.27286 -0.0827,0.48369 -0.24804,0.48369 -0.16537,0 -0.24805,-0.21083 -0.24805,-0.48369 0,-0.27698 0.0827,-0.48369 0.24805,-0.48369 0.16536,0 0.24804,0.20671 0.24804,0.48369 z m 1.39734,1.37666 c 0,-0.3886 -0.1695,-0.67386 -0.45476,-0.67386 -0.28939,0 -0.45888,0.28526 -0.45888,0.67386 0,0.38861 0.17363,0.66973 0.45888,0.66973 0.28526,0 0.45476,-0.28112 0.45476,-0.66973 z m -0.21085,0 c 0,0.26872 -0.0827,0.47956 -0.24391,0.47956 -0.16536,0 -0.24805,-0.21084 -0.24805,-0.47956 0,-0.28112 0.0827,-0.48782 0.24805,-0.48782 0.16123,0 0.24391,0.2067 0.24391,0.48782 z m -0.23564,-2.04638 -0.17777,-0.0538 -1.02939,2.75746 0.1819,0.0579 z M 123.73046,46.980748 c 0,-0.347265 -0.19017,-0.60358 -0.47542,-0.657325 v -0.0083 c 0.27285,-0.06201 0.40514,-0.34313 0.40514,-0.628385 0,-0.376204 -0.23978,-0.657323 -0.62012,-0.657323 -0.23978,0 -0.48783,0.132291 -0.59531,0.405143 l 0.21911,0.07028 c 0.0703,-0.15296 0.2067,-0.252179 0.35967,-0.252179 0.27698,0 0.3886,0.248047 0.3886,0.463021 0,0.310057 -0.17776,0.504362 -0.44235,0.504362 h -0.0827 v 0.210838 h 0.0786 c 0.30179,0 0.51263,0.186037 0.51263,0.54157 0,0.248047 -0.14056,0.545704 -0.45475,0.545704 -0.21911,0 -0.37621,-0.14056 -0.44236,-0.347266 l -0.23151,0.06615 c 0.0992,0.322461 0.34314,0.504362 0.68627,0.504362 0.44648,0 0.69453,-0.367938 0.69453,-0.760677 z m 1.73736,0 c 0,-0.347265 -0.19017,-0.60358 -0.47542,-0.657325 v -0.0083 c 0.27285,-0.06201 0.40514,-0.34313 0.40514,-0.628385 0,-0.376204 -0.23978,-0.657323 -0.62012,-0.657323 -0.23978,0 -0.48782,0.132291 -0.59531,0.405143 l 0.21911,0.07028 c 0.0703,-0.15296 0.2067,-0.252179 0.35967,-0.252179 0.27698,0 0.3886,0.248047 0.3886,0.463021 0,0.310057 -0.17776,0.504362 -0.44235,0.504362 h -0.0827 v 0.210838 h 0.0786 c 0.30179,0 0.51263,0.186037 0.51263,0.54157 0,0.248047 -0.14056,0.545704 -0.45475,0.545704 -0.21911,0 -0.37621,-0.14056 -0.44235,-0.347266 l -0.23151,0.06615 c 0.0992,0.322461 0.34313,0.504362 0.68626,0.504362 0.44648,0 0.69453,-0.367938 0.69453,-0.760677 z m 1.27434,-1.289843 c 0,-0.388607 -0.17363,-0.673862 -0.45888,-0.673862 -0.28939,0 -0.45476,0.285255 -0.45476,0.673862 0,0.388606 0.17363,0.669726 0.45476,0.669726 0.28525,0 0.45888,-0.28112 0.45888,-0.669726 z m -0.21084,0 c 0,0.272851 -0.0827,0.48369 -0.24804,0.48369 -0.16537,0 -0.24805,-0.210839 -0.24805,-0.48369 0,-0.276987 0.0827,-0.483693 0.24805,-0.483693 0.16536,0 0.24804,0.206706 0.24804,0.483693 z m 1.39733,1.376659 c 0,-0.388607 -0.1695,-0.67386 -0.45475,-0.67386 -0.28939,0 -0.45889,0.285253 -0.45889,0.67386 0,0.388606 0.17363,0.669726 0.45889,0.669726 0.28525,0 0.45475,-0.28112 0.45475,-0.669726 z m -0.21084,0 c 0,0.268718 -0.0827,0.479557 -0.24391,0.479557 -0.16536,0 -0.24805,-0.210839 -0.24805,-0.479557 0,-0.28112 0.0827,-0.487826 0.24805,-0.487826 0.16123,0 0.24391,0.206706 0.24391,0.487826 z m -0.23564,-2.046386 -0.17777,-0.05375 -1.02939,2.757456 0.1819,0.05788 z m 32.60266,7.710122 c 0,-0.376203 -0.20257,-0.686263 -0.61599,-0.686263 -0.35553,0 -0.59117,0.210842 -0.65732,0.603581 l 0.24391,0.02894 c 0.0496,-0.264583 0.19017,-0.409278 0.40101,-0.409278 0.24805,0 0.36794,0.219109 0.36794,0.479557 0,0.227378 -0.11162,0.446484 -0.28939,0.698667 l -0.7152,1.021125 v 0.243914 h 1.24023 v -0.231511 h -0.95911 l 0.59531,-0.855763 c 0.23151,-0.330729 0.38861,-0.566372 0.38861,-0.892969 z m 1.85725,0.669727 c 0,-0.611849 -0.12403,-1.35599 -0.7028,-1.35599 -0.58291,0 -0.71107,0.744141 -0.71107,1.35599 0,0.615984 0.12816,1.35599 0.71107,1.35599 0.57877,0 0.7028,-0.740006 0.7028,-1.35599 z m -0.26459,0 c 0,0.376206 -0.0413,1.128615 -0.43821,1.128615 -0.40101,0 -0.44649,-0.752409 -0.44649,-1.128615 0,-0.376203 0.0455,-1.128612 0.44649,-1.128612 0.39688,0 0.43821,0.752409 0.43821,1.128612 z m 1.47485,-0.694531 c 0,-0.388607 -0.17363,-0.67386 -0.45889,-0.67386 -0.28939,0 -0.45475,0.285253 -0.45475,0.67386 0,0.388607 0.17363,0.669726 0.45475,0.669726 0.28526,0 0.45889,-0.281119 0.45889,-0.669726 z m -0.21084,0 c 0,0.272851 -0.0827,0.483692 -0.24805,0.483692 -0.16536,0 -0.24804,-0.210841 -0.24804,-0.483692 0,-0.276985 0.0827,-0.48369 0.24804,-0.48369 0.16537,0 0.24805,0.206705 0.24805,0.48369 z m 1.39733,1.376661 c 0,-0.388607 -0.1695,-0.673862 -0.45475,-0.673862 -0.28939,0 -0.45889,0.285255 -0.45889,0.673862 0,0.388607 0.17363,0.669727 0.45889,0.669727 0.28525,0 0.45475,-0.28112 0.45475,-0.669727 z m -0.21084,0 c 0,0.268716 -0.0827,0.479558 -0.24391,0.479558 -0.16537,0 -0.24805,-0.210842 -0.24805,-0.479558 0,-0.28112 0.0827,-0.487825 0.24805,-0.487825 0.16123,0 0.24391,0.206705 0.24391,0.487825 z m -0.23565,-2.046388 -0.17776,-0.05374 -1.02939,2.757453 0.18189,0.05788 z M 57.681822,45.902775 c 0,-0.347266 -0.19017,-0.603581 -0.47542,-0.657326 v -0.0083 c 0.27285,-0.06201 0.40514,-0.343133 0.40514,-0.628385 0,-0.376206 -0.23978,-0.657326 -0.62012,-0.657326 -0.23978,0 -0.48782,0.132292 -0.59531,0.405144 l 0.21911,0.07028 c 0.0703,-0.152964 0.2067,-0.252183 0.35967,-0.252183 0.27698,0 0.3886,0.248047 0.3886,0.463021 0,0.31006 -0.17776,0.504362 -0.44235,0.504362 h -0.0827 v 0.210841 h 0.0786 c 0.30179,0 0.51263,0.186034 0.51263,0.541568 0,0.248047 -0.14056,0.545703 -0.45475,0.545703 -0.21911,0 -0.37621,-0.14056 -0.44235,-0.347265 l -0.23151,0.06615 c 0.0992,0.322461 0.34313,0.504362 0.68626,0.504362 0.44648,0 0.69453,-0.367934 0.69453,-0.760677 z m 1.72909,-0.107487 c 0,-0.479557 -0.2067,-0.826823 -0.64905,-0.826823 -0.0868,0 -0.20258,0.02894 -0.28526,0.07028 l 0.0248,-0.818553 h 0.81856 V 43.99695 h -1.0418 l -0.0289,1.302245 c 0.11162,-0.07441 0.29352,-0.124023 0.43408,-0.124023 0.31006,0 0.47956,0.252179 0.47956,0.628385 0,0.39274 -0.1819,0.632518 -0.43821,0.632518 -0.19431,0 -0.339,-0.119888 -0.41342,-0.322461 l -0.22324,0.08268 c 0.0951,0.293523 0.31833,0.467156 0.64079,0.467156 0.40101,0 0.68213,-0.314193 0.68213,-0.868164 z m 1.28055,-1.182357 c 0,-0.388607 -0.17364,-0.673859 -0.45889,-0.673859 -0.28939,0 -0.45475,0.285252 -0.45475,0.673859 0,0.388607 0.17363,0.669727 0.45475,0.669727 0.28525,0 0.45889,-0.28112 0.45889,-0.669727 z m -0.21085,0 c 0,0.272852 -0.0827,0.48369 -0.24804,0.48369 -0.16537,0 -0.24805,-0.210838 -0.24805,-0.48369 0,-0.276984 0.0827,-0.48369 0.24805,-0.48369 0.16536,0 0.24804,0.206706 0.24804,0.48369 z m 1.39734,1.376659 c 0,-0.388607 -0.1695,-0.673859 -0.45476,-0.673859 -0.28939,0 -0.45888,0.285252 -0.45888,0.673859 0,0.388607 0.17363,0.669726 0.45888,0.669726 0.28526,0 0.45476,-0.281119 0.45476,-0.669726 z m -0.21084,0 c 0,0.268719 -0.0827,0.479557 -0.24392,0.479557 -0.16536,0 -0.24804,-0.210838 -0.24804,-0.479557 0,-0.28112 0.0827,-0.487826 0.24804,-0.487826 0.16123,0 0.24392,0.206706 0.24392,0.487826 z m -0.23565,-2.046386 -0.17776,-0.05374 -1.0294,2.757453 0.1819,0.05788 z m 33.49977,15.382012 v -0.21498 h -1.28572 v 0.22738 h 1.0294 l -0.8599,2.39365 h 0.27285 z m 1.303267,0.401 c 0,-0.3886 -0.173627,-0.67386 -0.458877,-0.67386 -0.28939,0 -0.45475,0.28526 -0.45475,0.67386 0,0.38861 0.17363,0.66973 0.45475,0.66973 0.28525,0 0.458877,-0.28112 0.458877,-0.66973 z m -0.210837,0 c 0,0.27285 -0.0827,0.4837 -0.24804,0.4837 -0.16537,0 -0.24805,-0.21085 -0.24805,-0.4837 0,-0.27698 0.0827,-0.48369 0.24805,-0.48369 0.16536,0 0.24804,0.20671 0.24804,0.48369 z m 1.397327,1.37666 c 0,-0.3886 -0.16949,-0.67386 -0.45475,-0.67386 -0.28938,0 -0.45888,0.28526 -0.45888,0.67386 0,0.38861 0.17363,0.66973 0.45888,0.66973 0.28526,0 0.45475,-0.28112 0.45475,-0.66973 z m -0.21083,0 c 0,0.26872 -0.0827,0.47956 -0.24392,0.47956 -0.16536,0 -0.24805,-0.21084 -0.24805,-0.47956 0,-0.28112 0.0827,-0.48782 0.24805,-0.48782 0.16123,0 0.24392,0.2067 0.24392,0.48782 z m -0.23565,-2.04638 -0.17777,-0.0538 -1.029387,2.75746 0.1819,0.0579 z M 130.60863,42.756715 v -0.223242 h -0.32659 v -1.773537 h -0.34313 l -0.83096,1.752865 v 0.243914 h 0.93844 v 0.62425 h 0.23565 v -0.62425 z m -0.5581,-0.223242 h -0.71107 l 0.7028,-1.52549 h 0.008 z m 1.81177,0.847492 v -2.621029 h -0.23151 l -0.62012,0.467157 0.12403,0.20257 0.47955,-0.376203 v 2.327505 z m 1.65261,-2.005044 c 0,-0.388607 -0.17363,-0.673862 -0.45888,-0.673862 -0.28939,0 -0.45475,0.285255 -0.45475,0.673862 0,0.388606 0.17363,0.669726 0.45475,0.669726 0.28525,0 0.45888,-0.28112 0.45888,-0.669726 z m -0.21084,0 c 0,0.272851 -0.0827,0.48369 -0.24804,0.48369 -0.16537,0 -0.24805,-0.210839 -0.24805,-0.48369 0,-0.276987 0.0827,-0.483693 0.24805,-0.483693 0.16536,0 0.24804,0.206706 0.24804,0.483693 z m 1.39734,1.376658 c 0,-0.388606 -0.1695,-0.673859 -0.45476,-0.673859 -0.28938,0 -0.45888,0.285253 -0.45888,0.673859 0,0.388607 0.17363,0.669727 0.45888,0.669727 0.28526,0 0.45476,-0.28112 0.45476,-0.669727 z m -0.21085,0 c 0,0.268719 -0.0827,0.479558 -0.24391,0.479558 -0.16536,0 -0.24805,-0.210839 -0.24805,-0.479558 0,-0.281119 0.0827,-0.487825 0.24805,-0.487825 0.16123,0 0.24391,0.206706 0.24391,0.487825 z m -0.23564,-2.046385 -0.17777,-0.05375 -1.02939,2.757456 0.1819,0.05788 z m 32.28227,16.16542 v -2.621029 h -0.23151 l -0.62012,0.467156 0.12402,0.202571 0.47956,-0.376206 v 2.327508 z m 2.18798,-0.810287 c 0,-0.595312 -0.33073,-0.830955 -0.63666,-0.830955 -0.13229,0 -0.25218,0.05788 -0.33072,0.140557 l -0.008,-0.0041 0.57051,-1.116211 h -0.28112 l -0.54157,1.099675 c -0.11989,0.235643 -0.19017,0.471289 -0.19017,0.719336 0,0.504362 0.26458,0.847492 0.70693,0.847492 0.42995,0 0.71107,-0.334862 0.71107,-0.85576 z m -0.26045,0 c 0,0.372071 -0.16537,0.636654 -0.44649,0.636654 -0.28112,0 -0.45475,-0.248047 -0.45475,-0.628385 0,-0.359667 0.18604,-0.640787 0.46302,-0.640787 0.29353,0 0.43822,0.264584 0.43822,0.632518 z m 1.46451,-1.194757 c 0,-0.38861 -0.17364,-0.673862 -0.45889,-0.673862 -0.28939,0 -0.45475,0.285252 -0.45475,0.673862 0,0.388604 0.17363,0.669724 0.45475,0.669724 0.28525,0 0.45889,-0.28112 0.45889,-0.669724 z m -0.21084,0 c 0,0.272849 -0.0827,0.48369 -0.24805,0.48369 -0.16536,0 -0.24805,-0.210841 -0.24805,-0.48369 0,-0.276987 0.0827,-0.483693 0.24805,-0.483693 0.16537,0 0.24805,0.206706 0.24805,0.483693 z m 1.39733,1.376658 c 0,-0.388606 -0.1695,-0.673862 -0.45475,-0.673862 -0.28939,0 -0.45889,0.285256 -0.45889,0.673862 0,0.388607 0.17363,0.669727 0.45889,0.669727 0.28525,0 0.45475,-0.28112 0.45475,-0.669727 z m -0.21084,0 c 0,0.268717 -0.0827,0.479558 -0.24391,0.479558 -0.16537,0 -0.24805,-0.210841 -0.24805,-0.479558 0,-0.281119 0.0827,-0.487825 0.24805,-0.487825 0.16123,0 0.24391,0.206706 0.24391,0.487825 z m -0.23565,-2.046388 -0.17776,-0.05374 -1.0294,2.757456 0.1819,0.05787 z M 64.456602,48.062849 c 0,-0.347266 -0.19017,-0.603581 -0.47542,-0.657323 v -0.0083 c 0.27285,-0.06201 0.40514,-0.343133 0.40514,-0.628385 0,-0.376206 -0.23978,-0.657326 -0.62012,-0.657326 -0.23978,0 -0.48782,0.132292 -0.59531,0.405143 l 0.21911,0.07028 c 0.0703,-0.152964 0.20671,-0.252183 0.35967,-0.252183 0.27698,0 0.3886,0.248047 0.3886,0.463021 0,0.31006 -0.17776,0.504362 -0.44235,0.504362 h -0.0827 v 0.210841 h 0.0786 c 0.30179,0 0.51263,0.186034 0.51263,0.541568 0,0.248047 -0.14056,0.545703 -0.45475,0.545703 -0.21911,0 -0.37621,-0.14056 -0.44235,-0.347266 l -0.23151,0.06615 c 0.0992,0.322461 0.34313,0.504362 0.68626,0.504362 0.44648,0 0.69453,-0.367935 0.69453,-0.760677 z m 1.35702,0.715203 v -2.621029 h -0.23151 l -0.62012,0.467154 0.12403,0.202573 0.47956,-0.376206 v 2.327508 z m 1.65262,-2.005047 c 0,-0.388607 -0.17364,-0.673859 -0.45889,-0.673859 -0.28939,0 -0.45475,0.285252 -0.45475,0.673859 0,0.388607 0.17363,0.669727 0.45475,0.669727 0.28525,0 0.45889,-0.28112 0.45889,-0.669727 z m -0.21084,0 c 0,0.272852 -0.0827,0.483693 -0.24805,0.483693 -0.16537,0 -0.24805,-0.210841 -0.24805,-0.483693 0,-0.276984 0.0827,-0.48369 0.24805,-0.48369 0.16536,0 0.24805,0.206706 0.24805,0.48369 z m 1.39733,1.376662 c 0,-0.388607 -0.1695,-0.673862 -0.45476,-0.673862 -0.28938,0 -0.45888,0.285255 -0.45888,0.673862 0,0.388606 0.17363,0.669726 0.45888,0.669726 0.28526,0 0.45476,-0.28112 0.45476,-0.669726 z m -0.21084,0 c 0,0.268716 -0.0827,0.479557 -0.24392,0.479557 -0.16536,0 -0.24804,-0.210841 -0.24804,-0.479557 0,-0.28112 0.0827,-0.487826 0.24804,-0.487826 0.16124,0 0.24392,0.206706 0.24392,0.487826 z m -0.23565,-2.046388 -0.17776,-0.05374 -1.0294,2.757454 0.1819,0.05788 z m 32.281238,13.468947 v -2.621031 h -0.23151 l -0.620121,0.467161 0.12402,0.20257 0.479561,-0.37621 v 2.32751 z m 1.73736,0 v -2.621031 h -0.23151 l -0.62012,0.467161 0.12402,0.20257 0.47956,-0.37621 v 2.32751 z m 1.65261,-2.00505 c 0,-0.388603 -0.17363,-0.673858 -0.45889,-0.673858 -0.28939,0 -0.45475,0.285255 -0.45475,0.673858 0,0.38861 0.17363,0.66973 0.45475,0.66973 0.28526,0 0.45889,-0.28112 0.45889,-0.66973 z m -0.21084,0 c 0,0.27286 -0.0827,0.48369 -0.24805,0.48369 -0.16536,0 -0.24805,-0.21083 -0.24805,-0.48369 0,-0.27698 0.0827,-0.483689 0.24805,-0.483689 0.16537,0 0.24805,0.206709 0.24805,0.483689 z m 1.39733,1.37666 c 0,-0.3886 -0.1695,-0.67386 -0.45475,-0.67386 -0.28939,0 -0.45889,0.28526 -0.45889,0.67386 0,0.38861 0.17364,0.66973 0.45889,0.66973 0.28525,0 0.45475,-0.28112 0.45475,-0.66973 z m -0.21084,0 c 0,0.26872 -0.0827,0.47956 -0.24391,0.47956 -0.16537,0 -0.24805,-0.21084 -0.24805,-0.47956 0,-0.28112 0.0827,-0.48782 0.24805,-0.48782 0.16123,0 0.24391,0.2067 0.24391,0.48782 z m -0.23564,-2.046383 -0.17777,-0.05375 -1.0294,2.757463 0.18191,0.0579 z m 32.76595,-16.837215 v -0.223242 h -0.32659 v -1.773534 h -0.34314 l -0.83095,1.752862 v 0.243914 h 0.93844 v 0.62425 h 0.23565 v -0.62425 z m -0.5581,-0.223242 h -0.71107 l 0.7028,-1.525487 h 0.008 z m 2.26239,0.03721 c 0,-0.595312 -0.33073,-0.830955 -0.63665,-0.830955 -0.13229,0 -0.25219,0.05788 -0.33073,0.140559 l -0.008,-0.0041 0.5705,-1.116211 h -0.28112 l -0.54156,1.099675 c -0.1199,0.235645 -0.19018,0.471289 -0.19018,0.719335 0,0.504362 0.26459,0.847495 0.70694,0.847495 0.42995,0 0.71106,-0.334864 0.71106,-0.855763 z m -0.26045,0 c 0,0.372071 -0.16536,0.636654 -0.44648,0.636654 -0.28112,0 -0.45475,-0.248047 -0.45475,-0.628386 0,-0.359666 0.18603,-0.640786 0.46302,-0.640786 0.29352,0 0.43821,0.264583 0.43821,0.632518 z m 1.46244,-1.194758 c 0,-0.388606 -0.17363,-0.673862 -0.45888,-0.673862 -0.28939,0 -0.45475,0.285256 -0.45475,0.673862 0,0.388607 0.17363,0.669727 0.45475,0.669727 0.28525,0 0.45888,-0.28112 0.45888,-0.669727 z m -0.21084,0 c 0,0.272852 -0.0827,0.483691 -0.24804,0.483691 -0.16537,0 -0.24805,-0.210839 -0.24805,-0.483691 0,-0.276987 0.0827,-0.48369 0.24805,-0.48369 0.16536,0 0.24804,0.206703 0.24804,0.48369 z m 1.39733,1.376659 c 0,-0.388606 -0.16949,-0.673859 -0.45475,-0.673859 -0.28938,0 -0.45888,0.285253 -0.45888,0.673859 0,0.388607 0.17363,0.669727 0.45888,0.669727 0.28526,0 0.45475,-0.28112 0.45475,-0.669727 z m -0.21083,0 c 0,0.268719 -0.0827,0.479558 -0.24392,0.479558 -0.16536,0 -0.24805,-0.210839 -0.24805,-0.479558 0,-0.281119 0.0827,-0.487825 0.24805,-0.487825 0.16123,0 0.24392,0.206706 0.24392,0.487825 z m -0.23565,-2.046385 -0.17777,-0.05375 -1.02939,2.757456 0.1819,0.05788 z m 32.28227,21.562514 V 56.9512 h -0.23151 l -0.62012,0.467166 0.12403,0.20257 0.47955,-0.37621 v 2.32751 z m 1.73736,0 V 56.9512 h -0.23151 l -0.62012,0.467166 0.12403,0.20257 0.47955,-0.37621 v 2.32751 z m 1.65261,-2.00505 c 0,-0.388608 -0.17363,-0.673863 -0.45888,-0.673863 -0.28939,0 -0.45476,0.285255 -0.45476,0.673863 0,0.38861 0.17363,0.66973 0.45476,0.66973 0.28525,0 0.45888,-0.28112 0.45888,-0.66973 z m -0.21084,0 c 0,0.27286 -0.0827,0.48369 -0.24804,0.48369 -0.16537,0 -0.24805,-0.21083 -0.24805,-0.48369 0,-0.27698 0.0827,-0.483694 0.24805,-0.483694 0.16536,0 0.24804,0.206714 0.24804,0.483694 z m 1.39733,1.37666 c 0,-0.3886 -0.1695,-0.67386 -0.45475,-0.67386 -0.28939,0 -0.45889,0.28526 -0.45889,0.67386 0,0.38861 0.17364,0.66973 0.45889,0.66973 0.28525,0 0.45475,-0.28112 0.45475,-0.66973 z m -0.21084,0 c 0,0.26872 -0.0827,0.47956 -0.24391,0.47956 -0.16536,0 -0.24805,-0.21084 -0.24805,-0.47956 0,-0.28112 0.0827,-0.48782 0.24805,-0.48782 0.16123,0 0.24391,0.2067 0.24391,0.48782 z m -0.23564,-2.046388 -0.17777,-0.05375 -1.0294,2.757458 0.18191,0.0579 z M 48.828612,72.149236 c 0,-0.54984 -0.35966,-0.71107 -0.66559,-0.71107 h -0.61598 v 2.62103 h 0.25218 v -1.16996 h 0.38861 c 0.33899,0 0.64078,-0.25631 0.64078,-0.74 z m -0.25218,0.004 c 0,0.34726 -0.19017,0.51676 -0.42168,0.51676 h -0.35553 v -1.01286 h 0.3514 c 0.23151,0 0.42581,0.1447 0.42581,0.4961 z m 1.83865,0.99218 c 0,-0.58704 -0.23978,-0.98392 -0.64079,-0.98392 -0.40514,0 -0.64079,0.39688 -0.64079,0.98392 0,0.57465 0.24392,0.97152 0.64079,0.97152 0.40101,0 0.64079,-0.39687 0.64079,-0.97152 z m -0.25218,-0.004 c 0,0.42994 -0.11989,0.75654 -0.38861,0.75654 -0.26458,0 -0.3886,-0.3266 -0.3886,-0.75654 0,-0.43409 0.12402,-0.76895 0.3886,-0.76895 0.26459,0 0.38861,0.33486 0.38861,0.76895 z m 1.55546,-0.76068 c -0.0909,-0.12816 -0.24391,-0.21911 -0.45062,-0.21911 -0.28112,0 -0.50849,0.21497 -0.50849,0.52503 0,0.31833 0.1819,0.42995 0.36793,0.50023 0.17363,0.0703 0.34313,0.14056 0.34313,0.38034 0,0.2067 -0.11575,0.34313 -0.28938,0.34313 -0.1571,0 -0.27286,-0.091 -0.35554,-0.21911 l -0.14469,0.16123 c 0.10748,0.16123 0.29352,0.26459 0.49609,0.26459 0.31006,0 0.52917,-0.21084 0.52917,-0.57051 0,-0.32246 -0.21084,-0.45889 -0.41341,-0.53744 -0.19431,-0.0703 -0.29353,-0.14056 -0.29353,-0.33486 0,-0.18603 0.11162,-0.31419 0.26872,-0.31419 0.14056,0 0.24392,0.0744 0.30593,0.1819 z m 0.69143,-0.72347 c 0,-0.0992 -0.0703,-0.17777 -0.16123,-0.17777 -0.0951,0 -0.16537,0.0785 -0.16537,0.17777 0,0.10335 0.0703,0.17777 0.16537,0.17777 0.0868,0 0.16123,-0.0744 0.16123,-0.17777 z m -0.0413,2.40192 v -1.83555 h -0.24391 v 1.83555 z m 1.17719,0 -0.008,-0.19431 c -0.0372,0.0124 -0.091,0.0289 -0.13643,0.0289 -0.12816,0 -0.19017,-0.0992 -0.19017,-0.31833 v -1.15342 h 0.3266 v -0.19844 h -0.3266 v -0.50849 h -0.24391 v 0.50849 h -0.23564 v 0.19844 h 0.23978 v 1.19476 c 0,0.29765 0.0992,0.49196 0.35139,0.49196 0.0827,0 0.17364,-0.0248 0.22325,-0.0496 z m 0.59944,-2.40192 c 0,-0.0992 -0.0703,-0.17777 -0.16123,-0.17777 -0.0951,0 -0.16536,0.0785 -0.16536,0.17777 0,0.10335 0.0703,0.17777 0.16536,0.17777 0.0868,0 0.16123,-0.0744 0.16123,-0.17777 z m -0.0413,2.40192 v -1.83555 h -0.24391 v 1.83555 z m 1.62471,-1.83555 h -0.25218 l -0.3638,1.5751 h -0.008 l -0.38034,-1.5751 h -0.26045 l 0.49196,1.83555 h 0.28939 z m 1.45831,0.96739 v -0.1323 c 0,-0.49196 -0.1571,-0.8971 -0.59118,-0.8971 -0.39687,0 -0.64492,0.40514 -0.64492,0.98392 0,0.60358 0.23978,0.97152 0.64905,0.97152 0.26872,0 0.44236,-0.1695 0.53331,-0.39274 l -0.18604,-0.10749 c -0.0579,0.15296 -0.16123,0.28112 -0.339,0.28112 -0.27698,0 -0.40514,-0.30179 -0.40927,-0.70693 z m -0.24805,-0.20258 h -0.73587 c 0,-0.2191 0.10335,-0.61598 0.38447,-0.61598 0.23978,0 0.3514,0.24805 0.3514,0.61598 z m 27.76575,1.07074 v -2.62103 h -0.23565 v 2.17868 h -0.0124 l -0.90537,-2.17868 h -0.32246 v 2.62103 h 0.23978 v -2.18281 h 0.0124 l 0.91364,2.18281 z m 1.70635,-0.86816 v -0.1323 c 0,-0.49196 -0.15709,-0.8971 -0.59117,-0.8971 -0.39688,0 -0.64492,0.40514 -0.64492,0.98392 0,0.60358 0.23977,0.97152 0.64905,0.97152 0.26872,0 0.44235,-0.1695 0.5333,-0.39274 l -0.18604,-0.10749 c -0.0579,0.15296 -0.16122,0.28112 -0.33899,0.28112 -0.27699,0 -0.40514,-0.30179 -0.40928,-0.70693 z m -0.24804,-0.20258 h -0.73587 c 0,-0.2191 0.10335,-0.61598 0.38447,-0.61598 0.23978,0 0.3514,0.24805 0.3514,0.61598 z m 1.84795,1.04593 v -1.81074 h -0.23978 v 0.31006 h -0.008 c -0.0579,-0.22324 -0.2191,-0.37207 -0.44235,-0.37207 -0.38033,0 -0.57877,0.40101 -0.57877,0.97152 0,0.57051 0.21084,0.98392 0.58291,0.98392 0.25218,0 0.38034,-0.16537 0.43821,-0.38861 h 0.008 v 0.30592 c 0,0.39688 -0.0827,0.6904 -0.40515,0.6904 -0.18603,0 -0.34726,-0.10335 -0.44234,-0.25631 l -0.16123,0.17363 c 0.12815,0.18603 0.35553,0.30592 0.59531,0.30592 0.50436,0 0.65319,-0.39687 0.65319,-0.91364 z m -0.23978,-0.89296 c 0,0.42994 -0.12816,0.76067 -0.39274,0.76067 -0.26459,0 -0.38447,-0.33486 -0.38447,-0.76067 0,-0.43409 0.11988,-0.76895 0.38447,-0.76895 0.26045,0 0.39274,0.339 0.39274,0.76895 z m 1.7973,0.91777 c -0.004,-0.0786 -0.0165,-0.29352 -0.0165,-0.39274 v -0.76481 c 0,-0.47956 -0.14883,-0.74001 -0.5333,-0.74001 -0.1819,0 -0.38448,0.0951 -0.4961,0.25631 l 0.12816,0.15297 c 0.0827,-0.11576 0.20671,-0.19844 0.34727,-0.19844 0.19843,0 0.32659,0.14469 0.32659,0.46302 v 0.0992 h -0.14469 c -0.30179,0 -0.72347,0.10335 -0.72347,0.63252 0,0.38447 0.23564,0.54157 0.43822,0.54157 0.23977,0 0.3886,-0.14056 0.44648,-0.39274 h 0.008 c 0,0.0868 0.004,0.26458 0.008,0.34313 z m -0.23977,-0.80615 c 0,0.28112 -0.0868,0.65319 -0.36794,0.65319 -0.13643,0 -0.27285,-0.10749 -0.27285,-0.36381 0,-0.34726 0.25631,-0.41754 0.49196,-0.41754 h 0.14883 z m 1.33738,0.80615 -0.008,-0.19431 c -0.0372,0.0124 -0.0909,0.0289 -0.13642,0.0289 -0.12816,0 -0.19017,-0.0992 -0.19017,-0.31833 v -1.15342 h 0.32659 v -0.19844 h -0.32659 v -0.50849 h -0.24391 v 0.50849 h -0.23599 v 0.19844 h 0.23978 v 1.19476 c 0,0.29765 0.0992,0.49196 0.3514,0.49196 0.0827,0 0.17363,-0.0248 0.22324,-0.0496 z m 0.62115,-2.40192 c 0,-0.0992 -0.0703,-0.17777 -0.16123,-0.17777 -0.0951,0 -0.16536,0.0785 -0.16536,0.17777 0,0.10335 0.0703,0.17777 0.16536,0.17777 0.0868,0 0.16123,-0.0744 0.16123,-0.17777 z m -0.0413,2.40192 v -1.83555 h -0.24391 v 1.83555 z m 1.62367,-1.83555 h -0.25218 l -0.3638,1.5751 h -0.008 l -0.38034,-1.5751 h -0.26044 l 0.49195,1.83555 h 0.28939 z m 1.45625,0.96739 v -0.1323 c 0,-0.49196 -0.1571,-0.8971 -0.59118,-0.8971 -0.39687,0 -0.64492,0.40514 -0.64492,0.98392 0,0.60358 0.23977,0.97152 0.64905,0.97152 0.26872,0 0.44235,-0.1695 0.5333,-0.39274 l -0.18603,-0.10749 c -0.0579,0.15296 -0.16123,0.28112 -0.339,0.28112 -0.27698,0 -0.40514,-0.30179 -0.40927,-0.70693 z m -0.24805,-0.20258 h -0.73587 c 0,-0.2191 0.10335,-0.61598 0.38447,-0.61598 0.23978,0 0.3514,0.24805 0.3514,0.61598 z m 15.465718,0.35554 c 0,-0.43822 -0.26871,-0.62839 -0.45888,-0.66559 v -0.008 c 0.18603,-0.0661 0.36793,-0.23977 0.36793,-0.59117 0,-0.50437 -0.3762,-0.64079 -0.66972,-0.64079 h -0.59118 v 2.62103 h 0.66972 c 0.29352,0 0.68213,-0.1695 0.68213,-0.7152 z m -0.33073,-1.22783 c 0,0.33486 -0.23564,0.46715 -0.45062,0.46715 h -0.32659 v -0.93018 h 0.32246 c 0.22738,0 0.45475,0.11162 0.45475,0.46303 z m 0.0744,1.21129 c 0,0.35967 -0.21497,0.51263 -0.48782,0.51263 h -0.3638 v -1.04593 h 0.3638 c 0.21911,0 0.48782,0.14469 0.48782,0.5333 z m 1.85829,-0.1819 c 0,-0.58705 -0.23978,-0.98392 -0.64079,-0.98392 -0.40514,0 -0.64078,0.39687 -0.64078,0.98392 0,0.57464 0.24391,0.97152 0.64078,0.97152 0.40101,0 0.64079,-0.39688 0.64079,-0.97152 z m -0.25218,-0.004 c 0,0.42995 -0.11989,0.75655 -0.38861,0.75655 -0.26458,0 -0.3886,-0.3266 -0.3886,-0.75655 0,-0.43408 0.12402,-0.76894 0.3886,-0.76894 0.26459,0 0.38861,0.33486 0.38861,0.76894 z m 1.30741,0.91778 -0.008,-0.19431 c -0.0372,0.0124 -0.091,0.0289 -0.13643,0.0289 -0.12816,0 -0.19017,-0.0992 -0.19017,-0.31833 v -1.15341 h 0.3266 v -0.19844 h -0.3266 v -0.5085 h -0.24391 v 0.5085 h -0.23565 v 0.19844 h 0.23978 v 1.19476 c 0,0.29765 0.0992,0.49195 0.3514,0.49195 0.0827,0 0.17363,-0.0248 0.22324,-0.0496 z m 1.50999,0 v -1.18649 c 0,-0.339 -0.062,-0.71107 -0.45889,-0.71107 -0.23564,0 -0.40101,0.17363 -0.46302,0.40928 h -0.008 v -1.31052 h -0.24392 v 2.7988 h 0.24392 v -1.05834 c 0,-0.33072 0.15296,-0.62425 0.39687,-0.62425 0.25218,0 0.28526,0.27285 0.28526,0.4961 v 1.18649 z m 2.50424,-0.91364 c 0,-0.57051 -0.21084,-0.98392 -0.57878,-0.98392 -0.25218,0 -0.38447,0.16536 -0.44235,0.3886 h -0.008 v -0.32659 h -0.23565 v 2.72437 h 0.24392 v -1.20302 h 0.004 c 0.0579,0.22324 0.21911,0.37206 0.43822,0.37206 0.38034,0 0.57878,-0.401 0.57878,-0.97151 z m -0.25218,-0.008 c 0,0.43408 -0.11576,0.76481 -0.38448,0.76481 -0.25631,0 -0.39274,-0.33073 -0.39274,-0.76481 0,-0.42581 0.1323,-0.76481 0.39274,-0.76481 0.26872,0 0.38448,0.339 0.38448,0.76481 z m 1.89239,0.008 c 0,-0.58705 -0.23978,-0.98392 -0.64079,-0.98392 -0.40514,0 -0.64079,0.39687 -0.64079,0.98392 0,0.57464 0.24392,0.97151 0.64079,0.97151 0.40101,0 0.64079,-0.39687 0.64079,-0.97151 z m -0.25218,-0.004 c 0,0.42995 -0.11989,0.75654 -0.38861,0.75654 -0.26458,0 -0.38861,-0.32659 -0.38861,-0.75654 0,-0.43408 0.12403,-0.76895 0.38861,-0.76895 0.26458,0 0.38861,0.33487 0.38861,0.76895 z m 1.55546,-0.76068 c -0.0909,-0.12815 -0.24392,-0.2191 -0.45062,-0.2191 -0.28112,0 -0.5085,0.21497 -0.5085,0.52503 0,0.31832 0.1819,0.42994 0.36794,0.50023 0.17363,0.0703 0.34313,0.14056 0.34313,0.38033 0,0.20671 -0.11575,0.34313 -0.28939,0.34313 -0.15709,0 -0.27285,-0.091 -0.35553,-0.2191 l -0.1447,0.16123 c 0.10749,0.16123 0.29353,0.26458 0.4961,0.26458 0.31006,0 0.52916,-0.21084 0.52916,-0.57051 0,-0.32246 -0.21083,-0.45888 -0.41341,-0.53743 -0.1943,-0.0703 -0.29352,-0.14056 -0.29352,-0.33486 0,-0.18604 0.11162,-0.3142 0.26872,-0.3142 0.14056,0 0.24391,0.0744 0.30592,0.1819 z m 0.69143,-0.72347 c 0,-0.0992 -0.0703,-0.17776 -0.16123,-0.17776 -0.0951,0 -0.16537,0.0785 -0.16537,0.17776 0,0.10336 0.0703,0.17777 0.16537,0.17777 0.0868,0 0.16123,-0.0744 0.16123,-0.17777 z m -0.0413,2.40192 v -1.83554 h -0.24392 v 1.83554 z m 1.17615,0 -0.008,-0.1943 c -0.0372,0.0124 -0.0909,0.0289 -0.13643,0.0289 -0.12815,0 -0.19016,-0.0992 -0.19016,-0.31833 v -1.15342 h 0.32659 v -0.19843 h -0.32659 v -0.5085 h -0.24392 v 0.5085 h -0.23564 v 0.19843 h 0.23977 v 1.19476 c 0,0.29766 0.0992,0.49196 0.35141,0.49196 0.0827,0 0.17363,-0.0248 0.22324,-0.0496 z m 0.60048,-2.40192 c 0,-0.0992 -0.0703,-0.17776 -0.16123,-0.17776 -0.0951,0 -0.16536,0.0785 -0.16536,0.17776 0,0.10336 0.0703,0.17777 0.16536,0.17777 0.0868,0 0.16123,-0.0744 0.16123,-0.17777 z m -0.0413,2.40192 v -1.83554 h -0.24391 v 1.83554 z m 1.62368,-1.83554 h -0.25219 l -0.3638,1.57509 h -0.008 l -0.38034,-1.57509 h -0.26045 l 0.49196,1.83554 h 0.28938 z m 1.48001,0.96738 v -0.13229 c 0,-0.49196 -0.1571,-0.8971 -0.59118,-0.8971 -0.39688,0 -0.64492,0.40514 -0.64492,0.98391 0,0.60359 0.23978,0.97152 0.64906,0.97152 0.26871,0 0.44234,-0.1695 0.5333,-0.39274 l -0.18604,-0.10749 c -0.0579,0.15296 -0.16123,0.28112 -0.339,0.28112 -0.27698,0 -0.40514,-0.30179 -0.40928,-0.70693 z m -0.24805,-0.20257 h -0.73587 c 0,-0.21911 0.10335,-0.61598 0.38447,-0.61598 0.23978,0 0.3514,0.24804 0.3514,0.61598 z m 2.34818,1.07074 c -0.004,-0.0785 -0.0165,-0.29353 -0.0165,-0.39275 v -0.76481 c 0,-0.47955 -0.14882,-0.74 -0.5333,-0.74 -0.1819,0 -0.38447,0.0951 -0.49609,0.25631 l 0.12816,0.15296 c 0.0827,-0.11575 0.2067,-0.19843 0.34726,-0.19843 0.19844,0 0.3266,0.14469 0.3266,0.46302 v 0.0992 h -0.1447 c -0.30179,0 -0.72347,0.10335 -0.72347,0.63251 0,0.38448 0.23565,0.54157 0.43822,0.54157 0.23978,0 0.3886,-0.14055 0.44648,-0.39274 h 0.008 c 0,0.0868 0.004,0.26459 0.008,0.34314 z m -0.23978,-0.80616 c 0,0.28112 -0.0868,0.65319 -0.36794,0.65319 -0.13642,0 -0.27285,-0.10749 -0.27285,-0.3638 0,-0.34727 0.25632,-0.41754 0.49196,-0.41754 h 0.14883 z m 1.94924,0.80616 v -1.1865 c 0,-0.33899 -0.0661,-0.71106 -0.45889,-0.71106 -0.23564,0 -0.40101,0.17363 -0.46716,0.41754 h -0.008 c 0,-0.11575 -0.008,-0.26458 -0.0165,-0.35553 h -0.23564 c 0.008,0.0744 0.0165,0.30592 0.0165,0.46302 v 1.37253 h 0.24391 v -1.05834 c 0,-0.33073 0.14883,-0.62425 0.39274,-0.62425 0.25218,0 0.28939,0.27285 0.28939,0.49609 v 1.1865 z m 1.70635,0 v -2.79882 h -0.24804 v 1.27331 h -0.004 c -0.0579,-0.22324 -0.21498,-0.37207 -0.43822,-0.37207 -0.38034,0 -0.57877,0.40101 -0.57877,0.97152 0,0.57051 0.21083,0.98392 0.58291,0.98392 0.25217,0 0.38033,-0.16537 0.43821,-0.38861 h 0.008 v 0.33073 z m -0.23978,-0.91778 c 0,0.42581 -0.12816,0.76068 -0.39274,0.76068 -0.26458,0 -0.38447,-0.33487 -0.38447,-0.76068 0,-0.43408 0.11989,-0.76894 0.38447,-0.76894 0.26045,0 0.39274,0.33486 0.39274,0.76894 z m 2.68201,0.91778 v -1.1865 c 0,-0.33899 -0.0662,-0.71106 -0.45889,-0.71106 -0.23564,0 -0.40101,0.17363 -0.46715,0.41754 h -0.008 c 0,-0.11575 -0.008,-0.26458 -0.0165,-0.35553 h -0.23565 c 0.008,0.0744 0.0165,0.30592 0.0165,0.46302 v 1.37253 h 0.24391 v -1.05834 c 0,-0.33073 0.14883,-0.62425 0.39274,-0.62425 0.25218,0 0.28939,0.27285 0.28939,0.49609 v 1.1865 z m 1.67328,-0.86817 v -0.13229 c 0,-0.49196 -0.15709,-0.8971 -0.59118,-0.8971 -0.39687,0 -0.64492,0.40514 -0.64492,0.98391 0,0.60359 0.23978,0.97152 0.64906,0.97152 0.26871,0 0.44235,-0.1695 0.5333,-0.39274 l -0.18604,-0.10749 c -0.0579,0.15297 -0.16123,0.28112 -0.33899,0.28112 -0.27699,0 -0.40514,-0.30179 -0.40928,-0.70693 z m -0.24805,-0.20257 h -0.73586 c 0,-0.21911 0.10334,-0.61598 0.38447,-0.61598 0.23978,0 0.35139,0.24804 0.35139,0.61598 z m 1.84795,1.04593 v -1.81074 h -0.23977 v 0.31006 h -0.008 c -0.0579,-0.22325 -0.2191,-0.37207 -0.44235,-0.37207 -0.38034,0 -0.57877,0.40101 -0.57877,0.97151 0,0.57051 0.21083,0.98392 0.58291,0.98392 0.25218,0 0.38033,-0.16536 0.43821,-0.3886 h 0.008 v 0.30592 c 0,0.39688 -0.0827,0.6904 -0.40515,0.6904 -0.18603,0 -0.34726,-0.10335 -0.44235,-0.25632 l -0.16123,0.17363 c 0.12816,0.18604 0.35553,0.30593 0.59531,0.30593 0.50437,0 0.65319,-0.39688 0.65319,-0.91364 z m -0.23977,-0.89297 c 0,0.42995 -0.12816,0.76068 -0.39274,0.76068 -0.26459,0 -0.38448,-0.33487 -0.38448,-0.76068 0,-0.43408 0.11989,-0.76894 0.38448,-0.76894 0.26045,0 0.39274,0.33899 0.39274,0.76894 z m 1.79834,0.91778 c -0.004,-0.0785 -0.0165,-0.29353 -0.0165,-0.39275 v -0.76481 c 0,-0.47955 -0.14883,-0.74 -0.5333,-0.74 -0.1819,0 -0.38447,0.0951 -0.49609,0.25631 l 0.12815,0.15296 c 0.0827,-0.11575 0.20671,-0.19843 0.34727,-0.19843 0.19844,0 0.32659,0.14469 0.32659,0.46302 v 0.0992 h -0.14469 c -0.30179,0 -0.72347,0.10335 -0.72347,0.63251 0,0.38448 0.23564,0.54157 0.43822,0.54157 0.23977,0 0.3886,-0.14055 0.44648,-0.39274 h 0.008 c 0,0.0868 0.004,0.26459 0.008,0.34314 z m -0.23978,-0.80616 c 0,0.28112 -0.0868,0.65319 -0.36794,0.65319 -0.13643,0 -0.27285,-0.10749 -0.27285,-0.3638 0,-0.34727 0.25631,-0.41754 0.49196,-0.41754 h 0.14883 z m 1.33635,0.80616 -0.008,-0.19431 c -0.0372,0.0124 -0.0909,0.0289 -0.13642,0.0289 -0.12816,0 -0.19017,-0.0992 -0.19017,-0.31833 v -1.15341 h 0.32659 v -0.19844 h -0.32659 v -0.5085 h -0.24391 v 0.5085 h -0.23565 v 0.19844 h 0.23978 v 1.19475 c 0,0.29766 0.0992,0.49196 0.3514,0.49196 0.0827,0 0.17364,-0.0248 0.22324,-0.0496 z m 0.62115,-2.40193 c 0,-0.0992 -0.0703,-0.17776 -0.16123,-0.17776 -0.0951,0 -0.16537,0.0785 -0.16537,0.17776 0,0.10336 0.0703,0.17777 0.16537,0.17777 0.0868,0 0.16123,-0.0744 0.16123,-0.17777 z m -0.0413,2.40193 v -1.83555 h -0.24391 v 1.83555 z m 1.62367,-1.83555 h -0.25218 l -0.3638,1.57509 h -0.008 l -0.38033,-1.57509 h -0.26045 l 0.49196,1.83555 h 0.28938 z m 1.45831,0.96738 v -0.13229 c 0,-0.49196 -0.1571,-0.8971 -0.59118,-0.8971 -0.39687,0 -0.64492,0.40514 -0.64492,0.98391 0,0.60359 0.23978,0.97152 0.64906,0.97152 0.26871,0 0.44235,-0.1695 0.5333,-0.39274 l -0.18604,-0.10749 c -0.0579,0.15297 -0.16123,0.28112 -0.33899,0.28112 -0.27699,0 -0.40515,-0.30179 -0.40928,-0.70693 z m -0.24804,-0.20257 h -0.73588 c 0,-0.21911 0.10335,-0.61598 0.38448,-0.61598 0.23977,0 0.3514,0.24804 0.3514,0.61598 z m 14.74018,1.07074 v -2.62103 h -0.23565 v 2.17867 h -0.0124 l -0.90537,-2.17867 h -0.32246 v 2.62103 h 0.23978 v -2.18282 h 0.0124 l 0.91364,2.18282 z m 1.75183,-0.91365 c 0,-0.58704 -0.23978,-0.98391 -0.64079,-0.98391 -0.40514,0 -0.64079,0.39687 -0.64079,0.98391 0,0.57465 0.24392,0.97152 0.64079,0.97152 0.40101,0 0.64079,-0.39687 0.64079,-0.97152 z m -0.25218,-0.004 c 0,0.42995 -0.11989,0.75654 -0.38861,0.75654 -0.26458,0 -0.38861,-0.32659 -0.38861,-0.75654 0,-0.43408 0.12403,-0.76895 0.38861,-0.76895 0.26459,0 0.38861,0.33487 0.38861,0.76895 z m 1.69809,-1.48415 c 0,-0.0992 -0.0703,-0.17776 -0.16123,-0.17776 -0.0951,0 -0.16537,0.0785 -0.16537,0.17776 0,0.10336 0.0703,0.17777 0.16537,0.17777 0.0868,0 0.16123,-0.0744 0.16123,-0.17777 z m -0.0413,2.40192 v -1.83554 h -0.24392 v 1.83554 z m 0.81958,-1.48001 h -0.008 c 0,-0.11576 -0.008,-0.26459 -0.0165,-0.35553 h -0.23564 c 0.008,0.0744 0.0165,0.30592 0.0165,0.46302 v 1.37252 h 0.23978 v -1.05833 c 0,-0.33073 0.14056,-0.62425 0.38447,-0.62425 0.25218,0 0.28112,0.26871 0.28112,0.49609 v 1.18649 h 0.24392 v -1.05833 c 0,-0.33073 0.14056,-0.62425 0.38447,-0.62425 0.25218,0 0.28525,0.27285 0.28525,0.49609 v 1.18649 h 0.24805 v -1.18649 c 0,-0.339 -0.0661,-0.71107 -0.45889,-0.71107 -0.26458,0 -0.42581,0.20671 -0.48369,0.42168 h -0.008 c -0.0372,-0.21911 -0.1447,-0.42168 -0.41342,-0.42168 -0.24391,0 -0.40514,0.17364 -0.45888,0.41755 z m 3.65043,0.56637 c 0,-0.5705 -0.21084,-0.98392 -0.57878,-0.98392 -0.25218,0 -0.38447,0.16537 -0.44235,0.38861 h -0.008 v -0.32659 h -0.23565 v 2.72435 h 0.2439 v -1.20302 h 0.004 c 0.0579,0.22324 0.21911,0.37206 0.43822,0.37206 0.38034,0 0.57877,-0.401 0.57877,-0.97151 z m -0.25219,-0.008 c 0,0.43408 -0.11575,0.76481 -0.38447,0.76481 -0.25631,0 -0.39274,-0.33073 -0.39274,-0.76481 0,-0.42582 0.1323,-0.76481 0.39274,-0.76481 0.26872,0 0.38447,0.33899 0.38447,0.76481 z m 1.68259,0.9219 c -0.004,-0.0785 -0.0165,-0.29352 -0.0165,-0.39274 v -0.76481 c 0,-0.47956 -0.14883,-0.74 -0.5333,-0.74 -0.1819,0 -0.38447,0.0951 -0.49609,0.25631 l 0.12815,0.15296 c 0.0827,-0.11575 0.20671,-0.19843 0.34727,-0.19843 0.19844,0 0.3266,0.14469 0.3266,0.46302 v 0.0992 h -0.1447 c -0.30179,0 -0.72347,0.10336 -0.72347,0.63253 0,0.38447 0.23565,0.54156 0.43822,0.54156 0.23978,0 0.3886,-0.14056 0.44648,-0.39274 h 0.008 c 0,0.0868 0.004,0.26459 0.008,0.34313 z m -0.23978,-0.80615 c 0,0.28112 -0.0868,0.65319 -0.36793,0.65319 -0.13643,0 -0.27286,-0.10748 -0.27286,-0.3638 0,-0.34726 0.25632,-0.41755 0.49196,-0.41755 h 0.14883 z m 1.69292,0.678 -0.11162,-0.19017 c -0.062,0.0909 -0.15709,0.14883 -0.27699,0.14883 -0.27698,0 -0.401,-0.31006 -0.401,-0.74828 0,-0.44235 0.12815,-0.76481 0.3886,-0.76481 0.11989,0 0.20671,0.0537 0.26872,0.13643 l 0.12816,-0.17777 c -0.0786,-0.0909 -0.21084,-0.17363 -0.40101,-0.17363 -0.41341,0 -0.63665,0.39687 -0.63665,0.97978 0,0.57878 0.21497,0.97565 0.63251,0.97565 0.17364,0 0.3142,-0.0661 0.40928,-0.18603 z m 0.91364,0.12815 -0.008,-0.1943 c -0.0372,0.0124 -0.091,0.0289 -0.13643,0.0289 -0.12816,0 -0.19017,-0.0992 -0.19017,-0.31833 v -1.15342 h 0.3266 v -0.19843 h -0.3266 v -0.5085 h -0.24391 v 0.5085 h -0.23565 v 0.19843 h 0.23978 v 1.19477 c 0,0.29765 0.0992,0.49195 0.3514,0.49195 0.0827,0 0.17363,-0.0248 0.22325,-0.0496 z m 0,0"
       style="fill:#000000;fill-opacity:1;fill-rule:nonzero;stroke:none;stroke-width:0.352777"
       aria-label="%&#10;6%&#10;37%&#10;15%&#10;40%&#10;8%&#10;34%&#10;17%&#10;36%&#10;8%&#10;33%&#10;20%&#10;35%&#10;7%&#10;41%&#10;16%&#10;31%&#10;11%&#10;46%&#10;11%&#10;PositiveNegativeBoth positive and negativeNo impact" />
    <path
       id="path59"
       d="m 81.245242,32.997104 c 0,-0.376206 -0.20257,-0.686263 -0.61599,-0.686263 -0.35553,0 -0.59117,0.210838 -0.65732,0.60358 l 0.24391,0.02894 c 0.0496,-0.264583 0.19017,-0.409276 0.40101,-0.409276 0.24805,0 0.36794,0.219107 0.36794,0.479557 0,0.227375 -0.11162,0.446485 -0.28939,0.698664 l -0.7152,1.021128 v 0.243911 h 1.24023 v -0.23151 h -0.95911 l 0.59531,-0.855761 c 0.23151,-0.330729 0.38861,-0.566375 0.38861,-0.892968 z m 1.85725,0.669726 c 0,-0.611849 -0.12402,-1.355989 -0.7028,-1.355989 -0.58291,0 -0.71107,0.74414 -0.71107,1.355989 0,0.615982 0.12816,1.35599 0.71107,1.35599 0.57878,0 0.7028,-0.740008 0.7028,-1.35599 z m -0.26458,0 c 0,0.376203 -0.0413,1.128612 -0.43822,1.128612 -0.40101,0 -0.44648,-0.752409 -0.44648,-1.128612 0,-0.376205 0.0455,-1.128614 0.44648,-1.128614 0.39687,0 0.43822,0.752409 0.43822,1.128614 z m 2.02158,0 c 0,-0.611849 -0.12403,-1.355989 -0.7028,-1.355989 -0.58291,0 -0.71107,0.74414 -0.71107,1.355989 0,0.615982 0.12816,1.35599 0.71107,1.35599 0.57877,0 0.7028,-0.740008 0.7028,-1.35599 z m -0.26459,0 c 0,0.376203 -0.0413,1.128612 -0.43821,1.128612 -0.40101,0 -0.44649,-0.752409 -0.44649,-1.128612 0,-0.376205 0.0455,-1.128614 0.44649,-1.128614 0.39687,0 0.43821,0.752409 0.43821,1.128614 z m 1.87999,-0.669726 c 0,-0.376206 -0.20257,-0.686263 -0.61598,-0.686263 -0.35553,0 -0.59118,0.210838 -0.65733,0.60358 l 0.24392,0.02894 c 0.0496,-0.264583 0.19017,-0.409276 0.40101,-0.409276 0.24804,0 0.36793,0.219107 0.36793,0.479557 0,0.227375 -0.11162,0.446485 -0.28938,0.698664 l -0.71521,1.021128 v 0.243911 h 1.24024 v -0.23151 h -0.95912 l 0.59532,-0.855761 c 0.23151,-0.330729 0.3886,-0.566375 0.3886,-0.892968 z m 0,0"
       style="fill:#000000;fill-opacity:1;fill-rule:nonzero;stroke:none;stroke-width:0.352777"
       aria-label="2002" />
    <path
       id="path61"
       d="m 94.146782,32.997104 c 0,-0.376206 -0.20258,-0.686263 -0.61599,-0.686263 -0.35553,0 -0.59117,0.210838 -0.65732,0.60358 l 0.24391,0.02894 c 0.0496,-0.264583 0.19017,-0.409276 0.40101,-0.409276 0.24805,0 0.36794,0.219107 0.36794,0.479557 0,0.227375 -0.11162,0.446485 -0.28939,0.698664 l -0.7152,1.021128 v 0.243911 h 1.24023 v -0.23151 h -0.95911 l 0.59531,-0.855761 c 0.23151,-0.330729 0.38861,-0.566375 0.38861,-0.892968 z m 1.85621,0.669726 c 0,-0.611849 -0.12402,-1.355989 -0.7028,-1.355989 -0.58291,0 -0.71106,0.74414 -0.71106,1.355989 0,0.615982 0.12815,1.35599 0.71106,1.35599 0.57878,0 0.7028,-0.740008 0.7028,-1.35599 z m -0.26458,0 c 0,0.376203 -0.0413,1.128612 -0.43822,1.128612 -0.401,0 -0.44648,-0.752409 -0.44648,-1.128612 0,-0.376205 0.0455,-1.128614 0.44648,-1.128614 0.39688,0 0.43822,0.752409 0.43822,1.128614 z m 2.021577,0 c 0,-0.611849 -0.12402,-1.355989 -0.7028,-1.355989 -0.58291,0 -0.71106,0.74414 -0.71106,1.355989 0,0.615982 0.12815,1.35599 0.71106,1.35599 0.57878,0 0.7028,-0.740008 0.7028,-1.35599 z m -0.26458,0 c 0,0.376203 -0.0413,1.128612 -0.43822,1.128612 -0.40101,0 -0.44648,-0.752409 -0.44648,-1.128612 0,-0.376205 0.0455,-1.128614 0.44648,-1.128614 0.39688,0 0.43822,0.752409 0.43822,1.128614 z m 2.00814,0.500227 c 0,-0.595313 -0.33072,-0.830956 -0.63665,-0.830956 -0.13229,0 -0.25218,0.05788 -0.33073,0.14056 l -0.008,-0.0041 0.5705,-1.116211 h -0.28111 l -0.54157,1.099674 c -0.11989,0.235646 -0.19017,0.471289 -0.19017,0.719336 0,0.504362 0.26458,0.847495 0.70693,0.847495 0.42995,0 0.71107,-0.334865 0.71107,-0.855763 z m -0.26044,0 c 0,0.37207 -0.16537,0.636653 -0.44649,0.636653 -0.28112,0 -0.45475,-0.248046 -0.45475,-0.628385 0,-0.359667 0.18603,-0.640786 0.46302,-0.640786 0.29352,0 0.43822,0.264583 0.43822,0.632518 z m 0,0"
       style="fill:#000000;fill-opacity:1;fill-rule:nonzero;stroke:none;stroke-width:0.352777"
       aria-label="2006" />
    <path
       id="path63"
       d="m 107.04728,32.997104 c 0,-0.376206 -0.20257,-0.686263 -0.61598,-0.686263 -0.35553,0 -0.59118,0.210838 -0.65733,0.60358 l 0.24392,0.02894 c 0.0496,-0.264583 0.19017,-0.409276 0.40101,-0.409276 0.24804,0 0.36793,0.219107 0.36793,0.479557 0,0.227375 -0.11162,0.446485 -0.28939,0.698664 l -0.7152,1.021128 v 0.243911 h 1.24024 v -0.23151 h -0.95912 l 0.59531,-0.855761 c 0.23151,-0.330729 0.38861,-0.566375 0.38861,-0.892968 z m 1.85725,0.669726 c 0,-0.611849 -0.12402,-1.355989 -0.7028,-1.355989 -0.58291,0 -0.71106,0.74414 -0.71106,1.355989 0,0.615982 0.12815,1.35599 0.71106,1.35599 0.57878,0 0.7028,-0.740008 0.7028,-1.35599 z m -0.26458,0 c 0,0.376203 -0.0413,1.128612 -0.43822,1.128612 -0.40101,0 -0.44648,-0.752409 -0.44648,-1.128612 0,-0.376205 0.0455,-1.128614 0.44648,-1.128614 0.39688,0 0.43822,0.752409 0.43822,1.128614 z m 1.90169,-0.669726 c 0,-0.376206 -0.20257,-0.686263 -0.61598,-0.686263 -0.35553,0 -0.59118,0.210838 -0.65733,0.60358 l 0.24392,0.02894 c 0.0496,-0.264583 0.19017,-0.409276 0.40101,-0.409276 0.24804,0 0.36793,0.219107 0.36793,0.479557 0,0.227375 -0.11162,0.446485 -0.28939,0.698664 l -0.7152,1.021128 v 0.243911 h 1.24024 v -0.23151 h -0.95912 l 0.59532,-0.855761 c 0.23151,-0.330729 0.3886,-0.566375 0.3886,-0.892968 z m 1.41284,1.980239 v -2.621028 h -0.23151 l -0.62012,0.467156 0.12402,0.20257 0.47956,-0.376203 v 2.327505 z m 0,0"
       style="fill:#000000;fill-opacity:1;fill-rule:nonzero;stroke:none;stroke-width:0.352777"
       aria-label="2021" />
    <path
       id="path65"
       d="m 119.94882,32.997104 c 0,-0.376206 -0.20257,-0.686263 -0.61599,-0.686263 -0.35553,0 -0.59117,0.210838 -0.65732,0.60358 l 0.24391,0.02894 c 0.0496,-0.264583 0.19017,-0.409276 0.40101,-0.409276 0.24805,0 0.36794,0.219107 0.36794,0.479557 0,0.227375 -0.11162,0.446485 -0.28939,0.698664 l -0.7152,1.021128 v 0.243911 h 1.24023 v -0.23151 h -0.95911 l 0.59531,-0.855761 c 0.23151,-0.330729 0.38861,-0.566375 0.38861,-0.892968 z m 1.85622,0.669726 c 0,-0.611849 -0.12403,-1.355989 -0.7028,-1.355989 -0.58291,0 -0.71107,0.74414 -0.71107,1.355989 0,0.615982 0.12816,1.35599 0.71107,1.35599 0.57877,0 0.7028,-0.740008 0.7028,-1.35599 z m -0.26459,0 c 0,0.376203 -0.0413,1.128612 -0.43821,1.128612 -0.40101,0 -0.44649,-0.752409 -0.44649,-1.128612 0,-0.376205 0.0455,-1.128614 0.44649,-1.128614 0.39687,0 0.43821,0.752409 0.43821,1.128614 z m 1.90169,-0.669726 c 0,-0.376206 -0.20257,-0.686263 -0.61598,-0.686263 -0.35553,0 -0.59118,0.210838 -0.65732,0.60358 l 0.24391,0.02894 c 0.0496,-0.264583 0.19017,-0.409276 0.40101,-0.409276 0.24805,0 0.36794,0.219107 0.36794,0.479557 0,0.227375 -0.11163,0.446485 -0.28939,0.698664 l -0.7152,1.021128 v 0.243911 h 1.24023 v -0.23151 h -0.95911 l 0.59531,-0.855761 c 0.23151,-0.330729 0.3886,-0.566375 0.3886,-0.892968 z m 1.7353,0 c 0,-0.376206 -0.20257,-0.686263 -0.61598,-0.686263 -0.35554,0 -0.59118,0.210838 -0.65733,0.60358 l 0.24391,0.02894 c 0.0496,-0.264583 0.19017,-0.409276 0.40101,-0.409276 0.24805,0 0.36794,0.219107 0.36794,0.479557 0,0.227375 -0.11162,0.446485 -0.28939,0.698664 l -0.7152,1.021128 v 0.243911 h 1.24023 v -0.23151 h -0.95911 l 0.59531,-0.855761 c 0.23151,-0.330729 0.38861,-0.566375 0.38861,-0.892968 z m 0,0"
       style="fill:#000000;fill-opacity:1;fill-rule:nonzero;stroke:none;stroke-width:0.352777"
       aria-label="2022" />
    <path
       id="path67"
       d="m 132.84932,32.997104 c 0,-0.376206 -0.20257,-0.686263 -0.61598,-0.686263 -0.35553,0 -0.59118,0.210838 -0.65732,0.60358 l 0.24391,0.02894 c 0.0496,-0.264583 0.19017,-0.409276 0.40101,-0.409276 0.24804,0 0.36793,0.219107 0.36793,0.479557 0,0.227375 -0.11162,0.446485 -0.28938,0.698664 l -0.71521,1.021128 v 0.243911 h 1.24024 v -0.23151 h -0.95912 l 0.59532,-0.855761 c 0.23151,-0.330729 0.3886,-0.566375 0.3886,-0.892968 z m 1.85725,0.669726 c 0,-0.611849 -0.12402,-1.355989 -0.7028,-1.355989 -0.58291,0 -0.71106,0.74414 -0.71106,1.355989 0,0.615982 0.12815,1.35599 0.71106,1.35599 0.57878,0 0.7028,-0.740008 0.7028,-1.35599 z m -0.26458,0 c 0,0.376203 -0.0413,1.128612 -0.43822,1.128612 -0.401,0 -0.44648,-0.752409 -0.44648,-1.128612 0,-0.376205 0.0455,-1.128614 0.44648,-1.128614 0.39688,0 0.43822,0.752409 0.43822,1.128614 z m 1.90169,-0.669726 c 0,-0.376206 -0.20257,-0.686263 -0.61598,-0.686263 -0.35553,0 -0.59118,0.210838 -0.65732,0.60358 l 0.24391,0.02894 c 0.0496,-0.264583 0.19017,-0.409276 0.40101,-0.409276 0.24804,0 0.36793,0.219107 0.36793,0.479557 0,0.227375 -0.11162,0.446485 -0.28938,0.698664 l -0.71521,1.021128 v 0.243911 h 1.24024 v -0.23151 h -0.95912 l 0.59532,-0.855761 c 0.23151,-0.330729 0.3886,-0.566375 0.3886,-0.892968 z m 1.79318,1.265039 c 0,-0.347266 -0.19017,-0.603581 -0.47543,-0.657326 v -0.0083 c 0.27285,-0.06201 0.40515,-0.343133 0.40515,-0.628385 0,-0.376206 -0.23978,-0.657326 -0.62012,-0.657326 -0.23978,0 -0.48783,0.132292 -0.59531,0.405144 l 0.2191,0.07028 c 0.0703,-0.152964 0.20671,-0.252183 0.35967,-0.252183 0.27699,0 0.38861,0.248047 0.38861,0.463021 0,0.31006 -0.17777,0.504362 -0.44235,0.504362 h -0.0827 v 0.210841 h 0.0785 c 0.3018,0 0.51263,0.186034 0.51263,0.541568 0,0.248047 -0.14056,0.545703 -0.45475,0.545703 -0.21911,0 -0.3762,-0.14056 -0.44235,-0.347265 l -0.23151,0.06615 c 0.0992,0.322461 0.34313,0.504362 0.68627,0.504362 0.44648,0 0.69453,-0.367934 0.69453,-0.760677 z m 0,0"
       style="fill:#000000;fill-opacity:1;fill-rule:nonzero;stroke:none;stroke-width:0.352777"
       aria-label="2023" />
    <path
       id="path35"
       d="m 37.459802,43.290014 v -0.223242 h -0.3266 v -1.773534 h -0.34313 l -0.83095,1.752865 v 0.243911 h 0.93844 v 0.624253 h 0.23564 v -0.624253 z m -0.55811,-0.223242 h -0.71106 l 0.7028,-1.525487 h 0.008 z m 2.25413,-0.463021 c 0,-0.611849 -0.12402,-1.355989 -0.7028,-1.355989 -0.58291,0 -0.71107,0.74414 -0.71107,1.355989 0,0.615985 0.12816,1.35599 0.71107,1.35599 0.57878,0 0.7028,-0.740005 0.7028,-1.35599 z m -0.26458,0 c 0,0.376206 -0.0413,1.128615 -0.43822,1.128615 -0.40101,0 -0.44648,-0.752409 -0.44648,-1.128615 0,-0.376203 0.0455,-1.128612 0.44648,-1.128612 0.39688,0 0.43822,0.752409 0.43822,1.128612 z m 0,0"
       style="fill:#000000;fill-opacity:1;fill-rule:nonzero;stroke:none;stroke-width:0.352777"
       aria-label="  40" />
    <path
       id="path58"
       d="m 76.851822,32.82015 h 2.04717 v 2.047172 h -2.04717 z"
       style="fill:#2e5882;fill-opacity:1;fill-rule:evenodd;stroke:none;stroke-width:0.352777" />
    <path
       id="path60"
       d="m 89.752552,32.82015 h 2.04717 v 2.047172 h -2.04717 z"
       style="fill:#6b9bcb;fill-opacity:1;fill-rule:evenodd;stroke:none;stroke-width:0.352777" />
    <path
       id="path62"
       d="m 102.65363,32.82015 h 2.04717 v 2.047172 h -2.04717 z"
       style="fill:#ed7c31;fill-opacity:1;fill-rule:evenodd;stroke:none;stroke-width:0.352777" />
    <path
       id="path64"
       d="m 115.55472,32.82015 h 2.04717 v 2.047172 h -2.04717 z"
       style="fill:#f8b22a;fill-opacity:1;fill-rule:evenodd;stroke:none;stroke-width:0.352777" />
    <path
       id="path66"
       d="m 128.4558,32.82015 h 2.04717 v 2.047172 h -2.04717 z"
       style="fill:#f9e17d;fill-opacity:1;fill-rule:evenodd;stroke:none;stroke-width:0.352777" />
  </g>
</svg>
